<svg height="512" viewBox="0 0 64 64" width="512" xmlns="http://www.w3.org/2000/svg"><g id="Diamond-Smartphone-Gem-Fashion-Phone"><path d="m46 2h-28a6.006 6.006 0 0 0 -6 6v48a6.006 6.006 0 0 0 6 6h28a6.006 6.006 0 0 0 6-6v-48a6.006 6.006 0 0 0 -6-6zm4 54a4 4 0 0 1 -4 4h-28a4 4 0 0 1 -4-4v-48a4 4 0 0 1 4-4h28a4 4 0 0 1 4 4z"/><path d="m34 52h-4a3 3 0 0 0 0 6h4a3 3 0 0 0 0-6zm0 4h-4a1 1 0 0 1 0-2h4a1 1 0 0 1 0 2z"/><path d="m25 6h2v2h-2z"/><path d="m29 6h6v2h-6z"/><path d="m40.832 19.445a1 1 0 0 0 -.832-.445h-16a1 1 0 0 0 -.832.445l-4 6a1 1 0 0 0 .073 1.2l12 14a1 1 0 0 0 1.518 0l12-14a1 1 0 0 0 .073-1.2zm-10.964 5.555 2.132-3.2 2.132 3.2zm4.806 2-2.674 9.36-2.674-9.36zm-.806-6h4.264l-2.132 3.2zm-5.868 3.2-2.132-3.2h4.264zm-1.868.8h-4.263l2.131-3.2zm1.114 2 2.536 8.876-7.608-8.876zm9.509 0h5.071l-7.608 8.876zm1.113-2 2.132-3.2 2.132 3.2z"/></g></svg>