<?xml version="1.0" encoding="iso-8859-1"?>
<!-- Generator: Adobe Illustrator 19.0.0, SVG Export Plug-In . SVG Version: 6.00 Build 0)  -->
<svg version="1.1" id="Capa_1" xmlns="http://www.w3.org/2000/svg" xmlns:xlink="http://www.w3.org/1999/xlink" x="0px" y="0px"
	 viewBox="0 0 512 512" style="enable-background:new 0 0 512 512;" xml:space="preserve">
<g>
	<g>
		<path d="M239.888,248.5h-0.08c-4.142,0-7.46,3.358-7.46,7.5c0,4.142,3.398,7.5,7.54,7.5c4.142,0,7.5-3.358,7.5-7.5
			C247.388,251.858,244.03,248.5,239.888,248.5z"/>
	</g>
</g>
<g>
	<g>
		<path d="M119.806,248.5h-0.081c-4.142,0-7.46,3.358-7.46,7.5c0,4.142,3.398,7.5,7.541,7.5c4.143,0,7.5-3.358,7.5-7.5
			C127.306,251.858,123.948,248.5,119.806,248.5z"/>
	</g>
</g>
<g>
	<g>
		<path d="M448.467,248.5h-0.08c-4.142,0-7.46,3.358-7.46,7.5c0,4.142,3.398,7.5,7.54,7.5c4.142,0,7.5-3.358,7.5-7.5
			C455.967,251.858,452.609,248.5,448.467,248.5z"/>
	</g>
</g>
<g>
	<g>
		<path d="M392.354,248.5h-0.08c-4.142,0-7.46,3.358-7.46,7.5c0,4.142,3.398,7.5,7.54,7.5c4.142,0,7.5-3.358,7.5-7.5
			C399.854,251.858,396.497,248.5,392.354,248.5z"/>
	</g>
</g>
<g>
	<g>
		<path d="M63.693,248.5h-0.08c-4.142,0-7.46,3.358-7.46,7.5c0,4.142,3.398,7.5,7.54,7.5c4.142,0,7.5-3.358,7.5-7.5
			C71.193,251.858,67.835,248.5,63.693,248.5z"/>
	</g>
</g>
<g>
	<g>
		<path d="M496.484,208.419H329.392c-8.203-14.349-23.649-24.048-41.328-24.048h-80.161c-17.679,0-33.125,9.699-41.328,24.048
			H15.516C6.96,208.419,0,215.38,0,223.936v64.129c0,8.556,6.96,15.516,15.516,15.516h151.059
			c8.203,14.349,23.649,24.048,41.328,24.048h80.161c17.679,0,33.125-9.699,41.328-24.048h167.092
			c8.556,0,15.516-6.96,15.516-15.516v-64.129C512,215.38,505.04,208.419,496.484,208.419z M161.104,288.581H15.516
			c-0.285,0-0.516-0.231-0.516-0.516v-64.129c0-0.285,0.231-0.516,0.516-0.516h145.588c-0.504,2.77-0.781,5.619-0.781,8.532v48.097
			C160.323,282.963,160.6,285.811,161.104,288.581z M320.645,280.047c0,17.966-14.616,32.582-32.581,32.582h-80.161
			c-17.965,0-32.581-14.616-32.581-32.581v-48.097c0-17.965,14.616-32.581,32.581-32.581h80.161
			c17.965,0,32.581,14.616,32.581,32.581v0.516h-17.064v-0.516c0-8.556-6.96-15.516-15.516-15.516h-8.016
			c-4.142,0-7.5,3.358-7.5,7.5c0,4.142,3.358,7.5,7.5,7.5h8.016c0.285,0,0.516,0.231,0.516,0.516v0.516h-0.516
			c-12.976,0-23.532,10.557-23.532,23.532c0,12.975,10.557,23.532,23.532,23.532h0.516v0.516c0,0.285-0.231,0.516-0.516,0.516
			h-80.161c-0.285,0-0.516-0.231-0.516-0.516V231.95c0-0.285,0.231-0.516,0.516-0.516h40.081c4.142,0,7.5-3.358,7.5-7.5
			c0-4.142-3.358-7.5-7.5-7.5h-40.081c-8.556,0-15.516,6.96-15.516,15.516v48.097c0,8.556,6.96,15.516,15.516,15.516h80.161
			c8.556,0,15.516-6.96,15.516-15.516v-0.516h17.064V280.047z M328.145,264.532h-40.081c-4.705,0-8.532-3.828-8.532-8.532
			c0-4.704,3.828-8.532,8.532-8.532h40.071c0.003,0,0.006,0,0.01,0c0.002,0,0.003,0,0.005,0c4.702,0.003,8.527,3.829,8.527,8.532
			C336.677,260.705,332.85,264.532,328.145,264.532z M497,288.064c0,0.285-0.231,0.516-0.516,0.516h-161.62
			c0.504-2.77,0.781-5.619,0.781-8.532V278.3c9.308-3.139,16.032-11.946,16.032-22.3c0-10.354-6.724-19.16-16.032-22.3v-1.749
			c0-2.914-0.277-5.762-0.781-8.532h161.62c0.285,0,0.516,0.231,0.516,0.516V288.064z"/>
	</g>
</g>
<g>
</g>
<g>
</g>
<g>
</g>
<g>
</g>
<g>
</g>
<g>
</g>
<g>
</g>
<g>
</g>
<g>
</g>
<g>
</g>
<g>
</g>
<g>
</g>
<g>
</g>
<g>
</g>
<g>
</g>
</svg>
