<?xml version="1.0" encoding="iso-8859-1"?>
<!-- Generator: Adobe Illustrator 19.0.0, SVG Export Plug-In . SVG Version: 6.00 Build 0)  -->
<svg version="1.1" id="Capa_1" xmlns="http://www.w3.org/2000/svg" xmlns:xlink="http://www.w3.org/1999/xlink" x="0px" y="0px"
	 viewBox="0 0 496 496" style="enable-background:new 0 0 496 496;" xml:space="preserve">
<g>
	<g>
		<g>
			<path d="M493.752,407.312l-63.24-210.808c-5.12-17.048-20.52-28.504-38.328-28.504H368v-48C368,53.824,314.168,0,248,0
				S128,53.824,128,120v48h-24.184c-17.808,0-33.2,11.456-38.32,28.504L2.248,407.32C0.76,412.312,0,417.48,0,422.672
				c0,7.272,1.456,14.352,4.32,21.056L26.728,496h442.544l22.416-52.272c2.856-6.704,4.312-13.784,4.312-21.056
				C496,417.48,495.24,412.312,493.752,407.312z M80.816,201.104c3.072-10.232,12.312-17.104,23-17.104H128v48h16V120
				c0-57.344,46.656-104,104-104s104,46.656,104,104v112h16v-48h24.184c10.688,0,19.92,6.872,22.992,17.104l15.184,50.608
				c-24.056,11.952-42.016,33.888-48.568,60.136C379.416,321.36,370.904,328,361.112,328H134.888c-9.8,0-18.304-6.64-20.688-16.144
				c-6.552-26.256-24.512-48.192-48.568-60.144L80.816,201.104z M476.976,437.432L458.728,480H37.272l-18.24-42.568
				c-2.016-4.696-3.032-9.664-3.032-14.76c0-3.64,0.528-7.264,1.576-10.768l43.416-144.72c0.872,0.472,1.688,1.04,2.536,1.552
				L48.536,433.672c-0.456,5.152,0.52,10.328,2.832,14.952C56.12,458.112,65.648,464,76.248,464h343.504
				c10.6,0,20.136-5.888,24.88-15.376c2.312-4.624,3.288-9.8,2.832-14.968l-2.4-26.392l-15.936,1.456l2.4,26.376
				c0.192,2.2-0.216,4.408-1.2,6.376c-2.024,4.032-6.072,6.528-10.576,6.528H76.248c-4.512,0-8.552-2.496-10.568-6.528
				c-0.984-1.968-1.4-4.168-1.2-6.36l14.064-154.68c9.64,9.656,16.768,21.76,20.144,35.312c4.16,16.632,19.048,28.256,36.2,28.256
				h226.216c17.16,0,32.04-11.624,36.2-28.264c3.384-13.544,10.504-25.648,20.144-35.304l10.208,112.296l15.936-1.456
				l-11.136-122.536c0.856-0.504,1.664-1.08,2.544-1.552l43.416,144.712c1.056,3.512,1.584,7.136,1.584,10.776
				C480,427.768,478.984,432.736,476.976,437.432z"/>
			<path d="M176,183.952l71-0.448h73V232h16V120c0-48.52-39.48-88-88-88s-88,39.48-88,88v112h16V183.952z M176,120
				c0-39.704,32.296-72,72-72s72,32.296,72,72v47.504h-73.048L176,167.952V120z"/>
			<rect x="216" y="296" width="64" height="16"/>
		</g>
	</g>
</g>
<g>
</g>
<g>
</g>
<g>
</g>
<g>
</g>
<g>
</g>
<g>
</g>
<g>
</g>
<g>
</g>
<g>
</g>
<g>
</g>
<g>
</g>
<g>
</g>
<g>
</g>
<g>
</g>
<g>
</g>
</svg>
