<svg id="Capa_1" enable-background="new 0 0 511.502 511.502" height="512" viewBox="0 0 511.502 511.502" width="512" xmlns="http://www.w3.org/2000/svg"><path d="m435.12 375.147c-20.7 9.85-43.986 14.611-67.332 13.779-10.126-.363-20.845-2.876-32.769-7.685-5.995-2.417-11.134-4.815-15.709-7.329-28.679-15.756-59.998-28.601-94.67-15.984-10.306 3.748-19.812 9.003-29.004 14.084l-3.444 1.9c-4.576 2.514-9.714 4.911-15.709 7.329-11.924 4.809-22.643 7.322-32.77 7.685-27.562.984-54.465-5.694-77.816-19.32-18.737-10.936-34.006-26.041-48.039-40.576-2.172-2.25-3.186-5.317-2.785-8.417.405-3.119 2.182-5.846 4.878-7.481 8.383-5.085 17.375-10.156 26.725-15.072 3.663-1.927 5.071-6.457 3.145-10.119-1.926-3.661-6.455-5.069-10.119-3.145-9.62 5.059-18.88 10.282-27.523 15.525-6.613 4.011-10.975 10.705-11.967 18.367-.99 7.643 1.512 15.206 6.865 20.75 14.76 15.29 30.877 31.212 51.266 43.111 24.141 14.088 51.695 21.458 80.037 21.458 1.952 0 3.91-.035 5.869-.105 11.896-.427 24.272-3.293 37.837-8.762 6.553-2.643 12.219-5.291 17.321-8.094 1.16-.637 2.319-1.278 3.478-1.919 9.088-5.023 17.672-9.769 26.877-13.117 27.444-9.985 52.761-1.21 82.331 15.036 5.103 2.803 10.768 5.451 17.321 8.094 13.565 5.469 25.941 8.335 37.836 8.762 25.739.926 51.441-4.341 74.308-15.222 3.737-1.779 5.324-6.249 3.546-9.985-1.777-3.738-6.249-5.326-9.984-3.548z"/><path d="m511.289 318.687c-.992-7.661-5.354-14.356-11.967-18.368-61.467-37.282-128.959-58.969-143.771-63.493v-26.522c0-56.689-46.12-102.809-102.809-102.809s-102.809 46.12-102.809 102.809v20.497.001 7.919c-14.302 4.599-44.246 14.894-78.712 30.636-3.764 1.72-5.421 6.165-3.702 9.929 1.259 2.755 3.978 4.381 6.82 4.381 1.041 0 2.1-.219 3.108-.679 30.138-13.766 57.204-23.411 72.486-28.484v8.218c0 5.882 3.726 11.123 9.269 13.042 10.76 3.727 41.407 12.451 93.466 12.967h.074.074c52.059-.516 82.706-9.24 93.464-12.966 5.545-1.92 9.271-7.161 9.271-13.043v-10.177c20.404 6.535 81.479 27.517 135.999 60.587 2.696 1.635 4.473 4.362 4.878 7.481.401 3.1-.614 6.167-2.785 8.417-11.007 11.4-20.478 20.672-30.928 28.872-3.256 2.554-3.823 7.264-1.269 10.52 1.478 1.884 3.678 2.867 5.9 2.867 1.619 0 3.249-.522 4.62-1.598 11.124-8.729 21.02-18.407 32.457-30.253 5.354-5.545 7.857-13.108 6.866-20.751zm-170.723-93.547c-6.193 1.569-13.907 2.956-23.034 4.137-4.104.532-7.001 4.289-6.47 8.392.532 4.105 4.298 6.995 8.392 6.47 7.999-1.035 15.059-2.239 21.112-3.597v21.339c-10.739 3.621-39.294 11.376-87.824 11.865-48.527-.489-77.083-8.243-87.824-11.865v-18.864-2.475c32.925 7.385 85.328 7.852 87.77 7.869h.107c.56-.004 13.919-.11 31.492-1.13 4.131-.24 7.286-3.783 7.046-7.914-.24-4.132-3.775-7.296-7.914-7.046-16.617.964-29.731 1.096-30.677 1.104-2.056-.019-57.62-.607-87.824-8.283v-14.839c0-48.426 39.398-87.824 87.824-87.824s87.824 39.398 87.824 87.824z"/></svg>