<svg id="Capa_1" enable-background="new 0 0 512.001 512.001" height="512" viewBox="0 0 512.001 512.001" width="512" xmlns="http://www.w3.org/2000/svg"><g><path d="m194.883 253.617c-44.09-6.312-71.941-16.02-123.763-8.875-17.169 2.381-28.735 18.462-26.025 35.714 1.213 7.75 1.789 88.803 67.242 88.803 10.628 0 22.342-2.225 35.075-6.676 42.526-14.868 58.631-61.971 63.584-81.542.123-.491.257-.979.398-1.461 3.509-11.949-4.232-24.205-16.511-25.963zm2.119 21.739c-.196.669-.381 1.344-.55 2.015-4.355 17.211-18.335 58.588-53.99 71.053-23.156 8.095-41.649 7.747-54.962-1.034-25.342-16.713-26.048-59.474-27.587-69.26-1.31-8.333 3.568-17.197 14.053-18.639 48.252-6.589 75.604 2.79 118.79 8.974 3.225.462 5.187 3.683 4.246 6.891z"/><path d="m364.591 362.584c22.529 7.875 47.412 10.771 67.563-2.168 32.66-20.972 33.337-70.959 34.753-79.958 2.58-16.426-7.765-33.196-26.843-35.828-51.04-6.969-79.48 2.765-122.946 8.987-12.277 1.758-20.02 14.014-16.511 25.963.143.487.276.978.401 1.47 4.949 19.562 21.053 66.666 63.583 81.534zm-48.967-91.804c.476-.739 1.578-2.022 3.621-2.314 43.141-6.177 70.518-15.566 118.791-8.974 10.497 1.443 15.358 10.326 14.053 18.639-1.261 8.016-1.945 52.907-28.04 69.663-13.169 8.458-31.508 8.67-54.509.631-35.658-12.466-49.636-53.842-53.99-71.055-.539-2.122-1.498-4.14.074-6.59z"/><path d="m15.06 284.835c.301.005.521.181.544.189 2.189 31.95 10.245 57.924 23.945 77.2 12.985 18.272 31.209 30.278 52.7 34.72 4.063.839 8.025-1.77 8.863-5.827.839-4.056-1.771-8.024-5.826-8.863-37.93-7.84-60.913-42.735-64.718-98.256-.535-7.812-7.242-14.033-15.268-14.162-.166-.002-.301-.141-.301-.308v-25.376c0-1.395.904-2.611 2.25-3.026 46.222-14.253 93.949-17.599 140.467-8.783 80.83 15.314 115.734 15.314 196.568 0 47.934-9.084 96.887-4.656 140.467 8.783 1.346.415 2.249 1.631 2.249 3.026v25.376c0 .167-.135.305-.299.308-8.026.129-14.733 6.35-15.269 14.162-5.848 85.326-55.97 115.592-121.744 92.598-49.327-17.244-67.534-70.018-73.073-91.907-2.796-11.052-12.718-18.771-24.128-18.771h-12.976c-11.409 0-21.331 7.719-24.127 18.771-5.54 21.889-23.749 74.664-73.075 91.907-8.369 2.926-16.66 5.009-24.641 6.189-4.098.606-6.928 4.42-6.321 8.518.605 4.097 4.42 6.923 8.517 6.321 8.917-1.32 18.134-3.631 27.396-6.869 56.197-19.645 76.532-78.146 82.666-102.387 1.11-4.387 5.052-7.45 9.586-7.45h12.976c4.534 0 8.477 3.063 9.587 7.451 6.133 24.24 26.466 82.74 82.665 102.387 72.607 25.386 134.957-7.736 141.641-105.668.041-.072.261-.248.563-.253 8.303-.134 15.058-7 15.058-15.306v-25.376c0-8.018-5.156-14.994-12.829-17.36-4.581-1.412-11.704-3.438-21.002-5.565l-31.292-41.56c-2.49-3.309-7.191-3.971-10.503-1.48-3.309 2.492-3.972 7.194-1.479 10.503l21.226 28.19c-12.763-2.113-24.298-3.529-37.347-4.113l-33.038-59.85c-3.49-6.323-9.796-10.477-16.868-11.112l-16.442-1.478c-.128-.012-.366-.246-.366-.652v-10.976c0-.431.263-.653.375-.653h22.036c9.382 0 18.089 4.417 23.888 12.119l15.417 20.475c2.491 3.31 7.194 3.972 10.503 1.48s3.972-7.194 1.479-10.503l-15.417-20.475c-8.531-11.332-21.94-18.097-35.87-18.097h-22.036c-8.478 0-15.375 7.022-15.375 15.653v10.976c0 8.169 6.028 14.873 14.023 15.592l16.443 1.478c2.102.189 3.999 1.468 5.077 3.421l28.894 52.343c-16.647.252-33.36 1.942-50.005 5.097-78.535 14.881-112.447 14.88-190.982 0-16.646-3.154-33.359-4.845-50.006-5.096l28.893-52.343c1.079-1.954 2.978-3.233 5.079-3.422l16.443-1.478c7.995-.718 14.023-7.421 14.023-15.592v-10.975c0-8.631-6.897-15.653-15.376-15.653h-22.038c-13.929 0-27.338 6.765-35.87 18.097l-67.828 90.084c-9.299 2.127-16.422 4.153-21.002 5.565-7.674 2.366-12.83 9.343-12.83 17.36v25.376c0 8.305 6.755 15.172 15.06 15.306zm98.583-144.669c5.8-7.702 14.507-12.119 23.888-12.119h22.036c.112 0 .376.222.376.653v10.976c0 .407-.238.641-.365.652l-16.444 1.478c-7.071.636-13.377 4.79-16.868 11.112l-33.038 59.851c-13.384.615-24.427 1.991-37.346 4.113z"/></g></svg>