<?xml version="1.0" encoding="iso-8859-1"?>
<!-- Generator: Adobe Illustrator 19.0.0, SVG Export Plug-In . SVG Version: 6.00 Build 0)  -->
<svg version="1.1" id="Layer_1" xmlns="http://www.w3.org/2000/svg" xmlns:xlink="http://www.w3.org/1999/xlink" x="0px" y="0px"
	 viewBox="0 0 512 512" style="enable-background:new 0 0 512 512;" xml:space="preserve">
<g>
	<g>
		<path d="M498.684,242.347L323.167,90.132c-0.411-0.358-0.856-0.675-1.329-0.946c-0.896-0.517-22.163-12.558-39.279-2.679
			c-11.871,6.854-17.888,21.725-17.888,44.204c0,4.713,3.82,8.533,8.533,8.533s8.533-3.82,8.533-8.533
			c0-15.462,3.312-25.904,9.321-29.408c7.194-2.459,15.108-1.609,21.617,2.321l159.394,138.233h-81.444
			c-0.387,0.001-0.774,0.028-1.158,0.079c-8.204-0.162-16.692-0.079-24.817-0.188c-28.796-0.412-56.021-0.721-74.479,18.029
			l-68.563-0.229c-18.242-18.521-45.479-18.204-74.258-17.8c-8.117,0.108-16.6,0.025-24.804,0.188
			c-0.388-0.052-0.779-0.078-1.171-0.079H40.068l159.39-138.229c6.512-3.925,14.424-4.776,21.621-2.325
			c6.009,3.504,9.321,13.946,9.321,29.408c0,4.713,3.82,8.533,8.533,8.533s8.533-3.82,8.533-8.533
			c0-22.479-6.017-37.35-17.887-44.204c-17.117-9.887-38.383,2.163-39.279,2.68c-0.473,0.271-0.918,0.588-1.329,0.946
			L13.533,242.279C5.586,244.108-0.033,251.198,0,259.352v14.933c0.006,3.748,1.187,7.399,3.375,10.442l22.642,31.258v20.833
			c0.792,51.037,49.45,92.558,108.471,92.558c57.304,0,102.688-34.608,107.988-82.579l27.133,0.288
			c5.217,47.683,50.6,82.292,107.904,82.292c57.383,0,104.933-38.729,108.25-88.213c0.112-1.771,0.221-3.662,0.221-5.546v-19.633
			l22.692-31.329c2.161-3.027,3.323-6.652,3.325-10.371v-14.933C512.028,251.286,506.521,244.254,498.684,242.347z M494.8,274.719
			l-24.263,33.496c-1.054,1.456-1.621,3.207-1.621,5.004v22.4c0,1.525-0.1,3.05-0.183,4.442
			c-2.717,40.512-42.788,72.25-91.221,72.25c-48.442,0-86.683-28.212-90.925-66.938c-0.755-8.857-8.173-15.658-17.063-15.642h-27.05
			c-8.84-0.032-16.239,6.693-17.05,15.496c-4.254,38.871-42.496,67.083-90.938,67.083c-49.754,0-90.758-33.983-91.404-75.625
			v-23.467c0-1.797-0.567-3.548-1.621-5.004l-24.396-33.929l0.138-15.362h102.817c0.516,0.096,1.042,0.131,1.567,0.104
			c4.196-0.104,8.383-0.104,12.675-0.104c4.504,0.017,8.95-0.05,13.304-0.112c26.163-0.325,48.75-0.625,62.008,12.837
			c3.247,3.269,7.647,5.134,12.254,5.196h68.342c4.666-0.074,9.115-1.986,12.379-5.321c13.137-13.338,35.746-13.037,61.884-12.713
			c8.508,0.117,17.383,0.008,25.979,0.217c0.511,0.026,1.023-0.009,1.525-0.104l102.771-0.017c0.146,0.101,0.23,0.269,0.225,0.446
			L494.8,274.719z"/>
	</g>
</g>
<g>
	<g>
		<path d="M91.258,278.278c-3.319-3.26-8.638-3.26-11.957,0l-17.067,17.067c-3.362,3.302-3.411,8.704-0.109,12.066
			c3.302,3.362,8.704,3.411,12.066,0.109c0.037-0.036,0.073-0.072,0.109-0.109l17.067-17.067
			C94.668,286.982,94.62,281.58,91.258,278.278z"/>
	</g>
</g>
<g>
	<g>
		<path d="M133.924,286.811c-3.319-3.26-8.638-3.26-11.957,0l-51.2,51.2c-3.362,3.302-3.411,8.704-0.109,12.066
			c3.302,3.362,8.704,3.411,12.066,0.109c0.037-0.036,0.073-0.072,0.109-0.109l51.2-51.2
			C137.335,295.515,137.286,290.113,133.924,286.811z"/>
	</g>
</g>
<g>
	<g>
		<path d="M347.259,278.278c-3.319-3.26-8.639-3.26-11.958,0l-17.067,17.067c-3.362,3.302-3.41,8.704-0.108,12.066
			c3.302,3.362,8.704,3.41,12.066,0.108c0.036-0.036,0.072-0.072,0.108-0.108l17.067-17.067
			C350.669,286.982,350.62,281.58,347.259,278.278z"/>
	</g>
</g>
<g>
	<g>
		<path d="M389.925,286.811c-3.319-3.26-8.639-3.26-11.958,0l-51.2,51.2c-3.362,3.302-3.41,8.704-0.108,12.066
			c3.302,3.362,8.704,3.41,12.066,0.108c0.036-0.036,0.072-0.072,0.108-0.108l51.2-51.2
			C393.335,295.515,393.287,290.113,389.925,286.811z"/>
	</g>
</g>
<g>
	<g>
		<path d="M273.067,292.844h-34.133c-4.713,0-8.533,3.82-8.533,8.533s3.82,8.533,8.533,8.533h34.133c4.713,0,8.533-3.82,8.533-8.533
			S277.78,292.844,273.067,292.844z"/>
	</g>
</g>
<g>
</g>
<g>
</g>
<g>
</g>
<g>
</g>
<g>
</g>
<g>
</g>
<g>
</g>
<g>
</g>
<g>
</g>
<g>
</g>
<g>
</g>
<g>
</g>
<g>
</g>
<g>
</g>
<g>
</g>
</svg>
