<?xml version="1.0" encoding="utf-8"?>
<!-- Generator: Adobe Illustrator 28.1.0, SVG Export Plug-In . SVG Version: 6.00 Build 0)  -->
<svg version="1.1" id="Layer_1" xmlns="http://www.w3.org/2000/svg" xmlns:xlink="http://www.w3.org/1999/xlink" x="0px" y="0px"
	 viewBox="0 0 489.4 489.4" style="enable-background:new 0 0 489.4 489.4;" xml:space="preserve">
<style type="text/css">
	.st0{stroke:#000000;stroke-width:6;stroke-miterlimit:10;}
</style>
<g>
	<g>
		<rect x="186.2" y="131.3" class="st0" width="116.9" height="26.2"/>
		<path class="st0" d="M149.6,157.5h0.1v36.9c0,7.2,6.1,13.2,13.5,13.2s13.5-5.9,13.5-13.2v-12.7c-0.3-0.6-0.5-1.4-0.5-2.3v-65.6
			c0-0.8,0.1-1.4,0.4-2c1.2-36,31.3-64.8,68.2-64.8c37.6,0,68.2,30,68.2,66.7v6.9c0.1,0.3,0.1,0.7,0.1,1.1v35.9h0.1v36.9
			c0,7.2,6.1,13.2,13.5,13.2s13.5-5.9,13.5-13.2v-23.1c0-0.1,0-0.2,0-0.3v-39.8h-0.5v-17.6c0-51.2-42.6-92.8-95.1-92.8
			s-95,41.8-95,93v17.6l0,0V157.5z"/>
		<path class="st0" d="M421.9,131.1h-71.7v26.4h58.5v249.7c0,19.4-16.1,35.1-36,35.1H117c-19.8,0-36-15.8-36-35.1V157.5h58.6v-26.2
			H67.4c-7.4,0-13.5,5.9-13.5,13.2v262.8c0,33.8,28.1,61.5,62.9,61.5h255.7c34.7,0,62.9-27.5,62.9-61.5v-263
			C435.4,137.1,429.3,131.1,421.9,131.1z"/>
	</g>
</g>
</svg>
