<svg id="Group_20" data-name="Group 20" xmlns="http://www.w3.org/2000/svg" xmlns:xlink="http://www.w3.org/1999/xlink" width="122.248" height="121.329" viewBox="0 0 122.248 121.329">
  <defs>
    <clipPath id="clip-path">
      <path id="Path_8" data-name="Path 8" d="M33.618,1.658A6.209,6.209,0,0,0,28.264,4.72L.857,51.309a6.214,6.214,0,0,0,0,6.3L28.264,104.2a6.209,6.209,0,0,0,5.355,3.062H88.63a6.209,6.209,0,0,0,5.355-3.062l27.406-46.588a6.183,6.183,0,0,0,.857-3v-.3a6.183,6.183,0,0,0-.857-3L93.984,4.72A6.209,6.209,0,0,0,88.63,1.658Z" transform="translate(0 -1.658)" fill="none"/>
    </clipPath>
    <linearGradient id="linear-gradient" x1="0.122" y1="0.893" x2="0.141" y2="0.893" gradientUnits="objectBoundingBox">
      <stop offset="0" stop-color="#f44f5a"/>
      <stop offset="0.443" stop-color="#ee3d4a"/>
      <stop offset="1" stop-color="#e52030"/>
    </linearGradient>
    <clipPath id="clip-path-2">
      <rect id="Rectangle_11" data-name="Rectangle 11" width="122.248" height="121.329" fill="none"/>
    </clipPath>
  </defs>
  <g id="Group_17" data-name="Group 17" transform="translate(0 5.15)">
    <g id="Group_16" data-name="Group 16" clip-path="url(#clip-path)">
      <rect id="Rectangle_10" data-name="Rectangle 10" width="161.315" height="161.315" transform="translate(-53.086 52.8) rotate(-45)" fill="url(#linear-gradient)"/>
    </g>
  </g>
  <g id="Group_19" data-name="Group 19" transform="translate(0 0)">
    <g id="Group_18" data-name="Group 18" clip-path="url(#clip-path-2)">
      <text id="_" data-name="$" transform="translate(31.038 92.565)" fill="#fff" font-size="111" font-family="MyriadPro-Bold, Myriad Pro" font-weight="700"><tspan x="0" y="0">$</tspan></text>
    </g>
  </g>
</svg>