<?xml version="1.0" encoding="utf-8"?>
<!-- Generator: Adobe Illustrator 23.0.4, SVG Export Plug-In . SVG Version: 6.00 Build 0)  -->
<svg version="1.1" id="Capa_1" xmlns="http://www.w3.org/2000/svg" xmlns:xlink="http://www.w3.org/1999/xlink" x="0px" y="0px"
	 viewBox="0 0 513.3 513.3" style="enable-background:new 0 0 513.3 513.3;" xml:space="preserve">
<g>
	<g>
		<path d="M464.2,417.3L387,353c36-57,42.1-98.1,42.1-132.2c0-114.5-92.6-207.1-207.1-207.1S14.8,106.3,14.8,220.8
			s92.6,207.1,207.1,207.1C256,427.9,310,416,350,389l65,74c24.4,24.4,45.7,45.4,70,21C507,459.6,486,434,464.2,417.3z M223.3,395.4
			c-96.8,0-174.7-77.9-174.7-174.7S126.6,46,223.3,46S398,123.9,398,220.7S320.1,395.4,223.3,395.4z"/>
	</g>
</g>
</svg>
