<?xml version="1.0" encoding="utf-8"?>
<!-- Generator: Adobe Illustrator 28.1.0, SVG Export Plug-In . SVG Version: 6.00 Build 0)  -->
<svg version="1.1" id="Layer_1" xmlns="http://www.w3.org/2000/svg" xmlns:xlink="http://www.w3.org/1999/xlink" x="0px" y="0px"
	 viewBox="0 0 456.4 456.4" style="enable-background:new 0 0 456.4 456.4;" xml:space="preserve">
<style type="text/css">
	.st0{stroke:#000000;stroke-width:4;stroke-miterlimit:10;}
</style>
<g>
	<g>
		<g>
			<path class="st0" d="M324.2,207.7c-6.2,7.8-13.1,14.9-21.1,21.4c45.5,26.1,76.1,75.1,76.1,131.2c0,30.3-66.4,54-151.1,54
				S77,390.6,77,360.3c0-56.1,30.7-105.1,76.1-131.2c-8-6.5-14.9-13.6-21.1-21.4c-50.6,32-84.3,88.4-84.3,152.6
				c0,19.4,10.6,46.5,61.4,65.2c31.6,11.6,73.9,18.1,119,18.1s87.3-6.4,119-18.1c50.7-18.7,61.4-45.8,61.4-65.2
				C408.5,296.1,374.8,239.7,324.2,207.7z"/>
			<path class="st0" d="M228.2,223.4c56.8,0,100.6-48.2,100.6-105.3S285,12.8,228.2,12.8S127.6,61,127.6,118.1
				S171.4,223.4,228.2,223.4z M228.2,38.5c39.3,0,71.4,35.7,71.4,79.6s-32,79.6-71.4,79.6s-71.4-35.7-71.4-79.6
				S188.8,38.5,228.2,38.5z"/>
		</g>
	</g>
</g>
</svg>
