<svg id="Group_33" data-name="Group 33" xmlns="http://www.w3.org/2000/svg" xmlns:xlink="http://www.w3.org/1999/xlink" width="131" height="131" viewBox="0 0 131 131">
  <defs>
    <clipPath id="clip-path">
      <rect id="Rectangle_16" data-name="Rectangle 16" width="131" height="131" fill="none"/>
    </clipPath>
    <clipPath id="clip-path-3">
      <rect id="Rectangle_12" data-name="Rectangle 12" width="72.591" height="105.29" fill="none"/>
    </clipPath>
    <clipPath id="clip-path-4">
      <rect id="Rectangle_13" data-name="Rectangle 13" width="69.648" height="77.496" fill="none"/>
    </clipPath>
    <clipPath id="clip-path-5">
      <rect id="Rectangle_14" data-name="Rectangle 14" width="22.889" height="22.889" fill="none"/>
    </clipPath>
  </defs>
  <g id="Group_32" data-name="Group 32" clip-path="url(#clip-path)">
    <g id="Group_31" data-name="Group 31">
      <g id="Group_30" data-name="Group 30" clip-path="url(#clip-path)">
        <path id="Path_9" data-name="Path 9" d="M65.4,0A65.4,65.4,0,1,1,0,65.4,65.4,65.4,0,0,1,65.4,0" fill="#ffbf0c"/>
        <g id="Group_23" data-name="Group 23" transform="translate(27.14 12.753)" opacity="0.05" style="isolation: isolate">
          <g id="Group_22" data-name="Group 22">
            <g id="Group_21" data-name="Group 21" clip-path="url(#clip-path-3)">
              <path id="Path_10" data-name="Path 10" d="M76.967,53.929l-13.733-6.54-4.251-6.213a13.662,13.662,0,0,0-6.867-11.118A13.111,13.111,0,1,0,37.729,16.98,12.755,12.755,0,0,0,43.942,28.1L22.687,37.58a6.97,6.97,0,0,0-3.6,3.27L9.608,56.218c0,.327-.327.327-.327.654a6.309,6.309,0,0,0-.981,3.27,6.907,6.907,0,0,0,6.867,6.867,6.784,6.784,0,0,0,5.559-2.943l9.156-11.118,1.635-.654-.981,9.156c0,.654-.327,1.308-.327,2.289a10.444,10.444,0,0,0,.981,4.578l-1.308,9.81L21.053,99.053A9.548,9.548,0,0,0,20.4,102a6.907,6.907,0,0,0,6.867,6.867,6.424,6.424,0,0,0,5.559-2.943,1.013,1.013,0,0,0,.327-.654l12.1-20.273.654-1.308,2.289,1.962,9.156,19.292a6.825,6.825,0,0,0,6.54,4.251,6.907,6.907,0,0,0,6.867-6.867,4.848,4.848,0,0,0-.327-2.289L64.215,78.453l-.981-1.962L56.367,64.066l.327-2.943,14.714,5.559a6.374,6.374,0,0,0,2.616.327,6.872,6.872,0,0,0,2.943-13.08" transform="translate(-8.3 -3.9)"/>
            </g>
          </g>
        </g>
        <g id="Group_26" data-name="Group 26" transform="translate(28.775 38.912)" opacity="0.07" style="isolation: isolate">
          <g id="Group_25" data-name="Group 25">
            <g id="Group_24" data-name="Group 24" clip-path="url(#clip-path-4)">
              <path id="Path_11" data-name="Path 11" d="M63.08,89.069a5.033,5.033,0,0,1-4.9-3.27L48.693,66.18l-3.924-3.27-1.635,3.27-12.1,20.273a1.142,1.142,0,0,0-.327.654A5.589,5.589,0,0,1,26.457,89.4a5.165,5.165,0,0,1-5.232-5.232,5.565,5.565,0,0,1,.327-2.289l8.829-20.927,1.308-10.464a10.444,10.444,0,0,1-.981-4.578V43.945l1.308-11.772-4.578,1.308L18.283,44.926a5.589,5.589,0,0,1-4.251,2.289A5.165,5.165,0,0,1,8.8,41.983a7.7,7.7,0,0,1,.654-2.616c0-.327.327-.327.327-.654l9.483-15.368a7.72,7.72,0,0,1,2.943-2.616l19.946-8.5a6.374,6.374,0,0,1,2.616-.327A11.586,11.586,0,0,1,56.213,23.345l4.9,6.867,14.06,6.54a5.354,5.354,0,0,1,3.27,4.9,5.165,5.165,0,0,1-5.232,5.232,4.147,4.147,0,0,1-1.962-.327L56.54,41a7.147,7.147,0,0,1-1.635-.981l-.654,6.213,7.521,12.426c.327.654.654.981.654,1.635l6.213,21.581a2.45,2.45,0,0,1,.327,1.635c-.654,3.27-2.943,5.559-5.886,5.559" transform="translate(-8.8 -11.9)"/>
            </g>
          </g>
        </g>
        <g id="Group_29" data-name="Group 29" transform="translate(57.877 14.714)" opacity="0.07" style="isolation: isolate">
          <g id="Group_28" data-name="Group 28">
            <g id="Group_27" data-name="Group 27" clip-path="url(#clip-path-5)">
              <path id="Path_12" data-name="Path 12" d="M29.145,27.389A11.586,11.586,0,0,1,17.7,15.945a11.445,11.445,0,1,1,22.889,0A11.373,11.373,0,0,1,29.145,27.389" transform="translate(-17.7 -4.5)"/>
            </g>
          </g>
        </g>
        <path id="Path_13" data-name="Path 13" d="M16.6,32.8a3.6,3.6,0,1,0,3.6,3.6,3.629,3.629,0,0,0-3.6-3.6" transform="translate(29.508 74.452)"/>
        <path id="Path_14" data-name="Path 14" d="M39.586,27.359,24.218,21.8,21.929,38.476,13.1,59.731l6.213,3.6,12.426-20.6Z" transform="translate(29.735 49.483)"/>
        <path id="Path_15" data-name="Path 15" d="M30.9,20a3.6,3.6,0,1,1-3.6,3.6A3.595,3.595,0,0,1,30.9,20" transform="translate(61.968 45.398)"/>
        <path id="Path_16" data-name="Path 16" d="M45.024,40.132,30.31,34.573a7.148,7.148,0,0,1-1.635-.981L20.5,25.745,24.751,14.3,33.58,26.4l14.387,6.867Z" transform="translate(46.533 32.459)"/>
        <path id="Path_17" data-name="Path 17" d="M18.3,14.81a9.635,9.635,0,0,0,9.81,9.81,9.635,9.635,0,0,0,9.81-9.81A9.635,9.635,0,0,0,28.11,5a9.635,9.635,0,0,0-9.81,9.81" transform="translate(41.539 11.349)" fill="#595959"/>
        <path id="Path_18" data-name="Path 18" d="M16.8,22.31a9.635,9.635,0,0,0,9.81,9.81,9.635,9.635,0,0,0,9.81-9.81,9.635,9.635,0,0,0-9.81-9.81,9.635,9.635,0,0,0-9.81,9.81" transform="translate(38.134 28.373)" fill="#595959"/>
        <path id="Path_19" data-name="Path 19" d="M16,29.11a9.635,9.635,0,0,0,9.81,9.81,9.635,9.635,0,0,0,9.81-9.81,9.635,9.635,0,0,0-9.81-9.81A9.635,9.635,0,0,0,16,29.11" transform="translate(36.318 43.809)" fill="#595959"/>
        <path id="Path_20" data-name="Path 20" d="M27.9,32.8a3.6,3.6,0,1,0,3.6,3.6,3.629,3.629,0,0,0-3.6-3.6" transform="translate(55.158 74.452)" fill="#595959"/>
        <path id="Path_21" data-name="Path 21" d="M12.9,20a3.6,3.6,0,1,0,3.6,3.6A3.629,3.629,0,0,0,12.9,20" transform="translate(21.11 45.398)" fill="#595959"/>
        <path id="Path_22" data-name="Path 22" d="M37.908,17.816,18.616,15.2,16,37.108l3.924,9.156L33.657,57.708l9.81,19.946,6.867-2.616L44.121,53.131a2.479,2.479,0,0,0-.654-1.308L35.619,39.4Z" transform="translate(36.318 34.502)" fill="#595959"/>
        <path id="Path_23" data-name="Path 23" d="M39.483,12.7,21.5,20.875a4.4,4.4,0,0,0-2.289,1.962L9.4,38.532l6.213,3.924,9.81-12.1L42.1,24.8Z" transform="translate(21.337 28.827)" fill="#595959"/>
      </g>
    </g>
  </g>
</svg>
