<?xml version="1.0" encoding="utf-8"?>
<svg width="800px" height="800px" viewBox="0 0.5 25 25" fill="none" xmlns="http://www.w3.org/2000/svg" xmlns:bx="https://boxy-svg.com"><defs><bx:export><bx:file format="svg"/></bx:export></defs><path fill-rule="evenodd" clip-rule="evenodd" d="M 1.705 17.557 C 1.648 20.532 4.16 22.987 7.317 23.043 L 17.212 23.043 C 20.372 22.987 22.883 20.532 22.825 17.557 L 22.166 10.896 C 21.999 8.383 20.132 6.26 17.546 5.636 C 17.007 5.487 16.448 5.411 15.886 5.41 L 8.644 5.41 C 8.084 5.411 7.525 5.487 6.985 5.636 C 4.399 6.26 2.534 8.382 2.366 10.892 L 1.705 17.557 Z" stroke="#000000" stroke-width="1.7" stroke-linecap="round" stroke-linejoin="round" style=""/><path d="M 16.327 4.957 L 17.188 4.957 C 17.188 4.95 17.188 4.945 17.188 4.941 L 16.327 4.957 Z M 12.309 1.313 L 12.291 2.124 C 12.303 2.125 12.313 2.125 12.325 2.124 L 12.309 1.313 Z M 8.29 4.957 L 7.429 4.941 C 7.429 4.945 7.429 4.95 7.429 4.957 L 8.29 4.957 Z M 15.467 4.957 L 17.188 4.957 L 15.467 4.957 Z M 17.188 4.941 C 17.136 2.44 14.944 0.456 12.291 0.503 L 12.325 2.124 C 14.027 2.094 15.432 3.369 15.467 4.973 L 17.188 4.941 Z M 12.325 0.503 C 9.672 0.456 7.481 2.44 7.429 4.941 L 9.149 4.973 C 9.184 3.369 10.59 2.094 12.291 2.124 L 12.325 0.503 Z M 7.429 4.957 L 9.151 4.957 L 7.429 4.957 Z" fill="#000000" style="stroke-opacity: 0.9;"/><path d="M 15.574 8.137 C 15.574 7.689 15.959 7.326 16.435 7.326 C 16.91 7.326 17.295 7.689 17.295 8.137 L 15.574 8.137 Z M 16.435 10.323 L 17.295 10.323 C 17.295 10.329 17.295 10.334 17.295 10.34 L 16.435 10.323 Z M 12.417 13.967 L 12.399 13.156 C 12.411 13.155 12.42 13.155 12.433 13.156 L 12.417 13.967 Z M 8.398 10.323 L 7.537 10.34 C 7.537 10.334 7.537 10.329 7.537 10.323 L 8.398 10.323 Z M 7.537 8.138 C 7.537 7.69 7.921 7.328 8.398 7.328 C 8.873 7.328 9.258 7.69 9.258 8.138 L 7.537 8.138 Z M 17.295 8.137 L 17.295 10.323 L 15.574 10.323 L 15.574 8.137 L 17.295 8.137 Z M 17.295 10.34 C 17.243 12.839 15.052 14.823 12.399 14.777 L 12.433 13.156 C 14.135 13.185 15.539 11.91 15.574 10.307 L 17.295 10.34 Z M 12.433 14.777 C 9.779 14.823 7.589 12.839 7.537 10.34 L 9.256 10.307 C 9.293 11.91 10.698 13.185 12.399 13.156 L 12.433 14.777 Z M 7.537 10.323 L 7.537 8.138 L 9.258 8.138 L 9.258 10.323 L 7.537 10.323 Z" fill="#000000" style="stroke-opacity: 0.9;"/></svg>
