<?xml version="1.0" encoding="utf-8"?>
<svg width="30px" height="30px" viewBox="0 0 25 25" fill="none" xmlns="http://www.w3.org/2000/svg" xmlns:bx="https://boxy-svg.com"><defs><bx:export><bx:file format="svg"/></bx:export></defs><path fill-rule="evenodd" clip-rule="evenodd" d="M 2.539 17.959 C 2.486 20.723 4.82 23.004 7.753 23.056 L 16.947 23.056 C 19.882 23.004 22.215 20.723 22.162 17.959 L 21.549 11.77 C 21.394 9.436 19.66 7.463 17.256 6.883 C 16.756 6.745 16.236 6.675 15.715 6.674 L 8.986 6.674 C 8.465 6.675 7.946 6.745 7.444 6.883 C 5.042 7.463 3.309 9.435 3.153 11.767 L 2.539 17.959 Z" stroke="#000000" stroke-width="1.7px" stroke-linecap="round" fill="" stroke-linejoin="round" style=""/><path d="M 16.206 9.046 C 16.206 9.592 16.675 10.036 17.257 10.036 C 17.837 10.036 18.308 9.592 18.308 9.046 L 16.206 9.046 Z M 17.257 6.377 L 18.308 6.377 C 18.308 6.37 18.308 6.363 18.308 6.358 L 17.257 6.377 Z M 12.351 1.931 L 12.331 2.92 C 12.344 2.921 12.356 2.921 12.371 2.92 L 12.351 1.931 Z M 7.446 6.377 L 6.395 6.358 C 6.395 6.363 6.395 6.37 6.395 6.377 L 7.446 6.377 Z M 6.395 9.044 C 6.395 9.591 6.864 10.034 7.446 10.034 C 8.026 10.034 8.497 9.591 8.497 9.044 L 6.395 9.044 Z M 18.308 9.046 L 18.308 6.377 L 16.206 6.377 L 16.206 9.046 L 18.308 9.046 Z M 18.308 6.358 C 18.243 3.307 15.568 0.884 12.331 0.941 L 12.371 2.92 C 14.448 2.885 16.163 4.44 16.206 6.397 L 18.308 6.358 Z M 12.371 0.941 C 9.133 0.884 6.459 3.307 6.395 6.358 L 8.495 6.397 C 8.537 4.44 10.254 2.885 12.331 2.92 L 12.371 0.941 Z M 6.395 6.377 L 6.395 9.044 L 8.497 9.044 L 8.497 6.377 L 6.395 6.377 Z" width="1.7px" fill="#000000" style=""/></svg>
