<svg viewBox="0 0 1054.414 1045.334" xmlns="http://www.w3.org/2000/svg"><path d="M735.278 435.132v-.023c0-61.082-49.516-110.597-110.596-110.597-38.406 0-72.24 19.576-92.066 49.294l-.253.404c-19.944-30.337-53.827-50.09-92.323-50.09-60.822 0-110.128 49.307-110.128 110.13 0 .31 0 .62.004.93v-.047c0 128.873 202.447 202.916 202.447 202.916S735.28 564.005 735.28 435.132zm-521.115-413.8H840.25c118.226.134 214.03 95.94 214.164 214.15V682.57c-.133 118.225-95.938 214.03-214.15 214.163H675.81l-148.603 148.603L378.605 896.73H214.163C95.938 896.6.133 800.794 0 682.58V235.497C.133 117.27 95.938 21.466 214.15 21.333h.013zM840.25 826.438c79.425-.08 143.79-64.445 143.87-143.86v-447.08c-.08-79.425-64.445-143.79-143.86-143.87H214.163c-79.424.08-143.79 64.445-143.87 143.86v447.08c.08 79.425 64.446 143.79 143.862 143.87h193.598L527.207 945.89 646.66 826.437z"/></svg>