<svg xmlns="http://www.w3.org/2000/svg" width="513.809" height="498.99" viewBox="0 0 513.809 498.99">
  <g id="heart-comment-hollow" transform="translate(0 -21.332)">
    <g id="Rectangle_7" data-name="Rectangle 7" transform="translate(26 49.332)" fill="#fff" stroke="#707070" stroke-width="1">
      <rect width="462" height="370" rx="61" stroke="none"/>
      <rect x="0.5" y="0.5" width="461" height="369" rx="60.5" fill="none"/>
    </g>
    <path id="Polygon_3" data-name="Polygon 3" d="M78.5,0,157,90H0Z" transform="translate(332.005 496.07) rotate(180)" fill="#fff"/>
    <path id="Path_17" data-name="Path 17" d="M104.36,21.332H409.448A104.477,104.477,0,0,1,513.809,125.686V343.549a104.476,104.476,0,0,1-104.354,104.36H329.318L256.9,520.322l-72.413-72.415H104.36A104.474,104.474,0,0,1,0,343.554V125.693A104.475,104.475,0,0,1,104.354,21.332h.006ZM409.448,413.655a70.176,70.176,0,0,0,70.107-70.1V125.694a70.176,70.176,0,0,0-70.1-70.107H104.36a70.176,70.176,0,0,0-70.107,70.1V343.548a70.176,70.176,0,0,0,70.1,70.107H198.7l58.2,58.208,58.209-58.209Z" fill="#ea3226"/>
    <path id="Path_18" data-name="Path 18" d="M330.77,210.461h.9c20.508.259,41.09,12.728,55.641,24.977,0,0,17.948-20.074,56.642-24.592l-.166.01c48.368,3.364,83.256,43.031,83.256,91.951,0,1.654-.122,4.7-.122,4.7C526.333,406.67,389.7,459.966,384.27,462.166c0,0-139.983-55.436-140.569-154.656-.075-1.389-.115-3.01-.115-4.643a92.567,92.567,0,0,1,85.99-92.331l.3-.014Zm54.964,95.923-20.941-28.927a38.793,38.793,0,0,0-32.743-20.514h-.068a46,46,0,0,0-41.914,45.774c0,.954.027,1.906.088,2.846l-.007-.129v1.4c0,55.778,70.1,95.781,95.191,108.238,25.165-12.395,95.068-51.81,95.068-108.238v-1.4c.055-.8.082-1.736.082-2.682a45.962,45.962,0,0,0-41.76-45.768l-.18-.014a38.788,38.788,0,0,0-32.723,20.31l-.1.2Z" transform="translate(-124.888 -96.968)" fill="#ea3226"/>
  </g>
</svg>
