<?xml version="1.0" encoding="utf-8"?>
<svg width="30px" height="30px" viewBox="0 -0.5 25 25" fill="none" xmlns="http://www.w3.org/2000/svg" xmlns:bx="https://boxy-svg.com"><defs><bx:export><bx:file format="svg"/></bx:export></defs><path fill-rule="evenodd" clip-rule="evenodd" d="M 16.326 8.507 C 16.326 10.689 14.556 12.459 12.373 12.459 C 10.191 12.459 8.421 10.689 8.421 8.507 C 8.421 6.324 10.191 4.554 12.373 4.554 C 13.422 4.554 14.426 4.97 15.169 5.712 C 15.91 6.454 16.326 7.46 16.326 8.507 Z" stroke="#000000" stroke-width="1.7px" stroke-linecap="round" stroke-linejoin="round" style=""/><path d="M 4.956 19.66 C 9.583 13.883 15.437 13.883 20.065 19.66" stroke="#000000" stroke-width="1.7px" stroke-linecap="round" style=""/><path fill-rule="evenodd" clip-rule="evenodd" d="M 23.381 11.938 C 23.381 17.96 18.499 22.842 12.479 22.842 C 6.457 22.842 1.576 17.96 1.576 11.938 C 1.576 5.918 6.457 1.037 12.479 1.037 C 15.37 1.037 18.143 2.183 20.187 4.228 C 22.23 6.275 23.381 9.048 23.381 11.938 Z" stroke="#000000" stroke-width="1.7px" stroke-linecap="round" stroke-linejoin="round" style=""/></svg>
